<svg xmlns="http://www.w3.org/2000/svg" viewBox="0 0 16 16"><path d="M6.287 11.755l-.648.643a1.449 1.449 0 0 1-2.035 0 1.405 1.405 0 0 1 0-2.003l2.384-2.366c.494-.49 1.423-1.211 2.101-.539a.794.794 0 0 0 1.118-1.126c-1.151-1.142-2.854-.931-4.336.539L2.487 9.269c-.571.568-.886 1.323-.886 2.127s.315 1.558.887 2.126c.589.585 1.362.876 2.134.876s1.547-.291 2.136-.876l.648-.644a.792.792 0 1 0-1.118-1.125zm7.226-9.188c-1.237-1.227-2.966-1.294-4.111-.158l-.807.801a.793.793 0 1 0 1.117 1.126l.807-.801c.593-.589 1.37-.345 1.877.158.27.267.418.623.418 1.001s-.149.734-.418 1.001L9.852 8.218C8.69 9.372 8.143 8.831 7.91 8.6a.793.793 0 1 0-1.117 1.126c.534.53 1.144.792 1.782.792.782 0 1.609-.394 2.394-1.174l2.543-2.523c.572-.567.887-1.322.887-2.126s-.315-1.559-.887-2.127z"/></svg>